<?xml version="1.0" encoding="UTF-8" standalone="no"?>
<!-- Uploaded to: SVG Repo, www.svgrepo.com, Generator: SVG Repo Mixer Tools -->

<svg
   fill="#000000"
   version="1.1"
   id="Capa_1"
   width="800px"
   height="800px"
   viewBox="0 0 589.728 589.728"
   xml:space="preserve"
   sodipodi:docname="asterisk-outline-svgrepo-com.svg"
   inkscape:version="1.4 (e7c3feb100, 2024-10-09)"
   xmlns:inkscape="http://www.inkscape.org/namespaces/inkscape"
   xmlns:sodipodi="http://sodipodi.sourceforge.net/DTD/sodipodi-0.dtd"
   xmlns="http://www.w3.org/2000/svg"
   xmlns:svg="http://www.w3.org/2000/svg"><defs
   id="defs3" /><sodipodi:namedview
   id="namedview3"
   pagecolor="#505050"
   bordercolor="#eeeeee"
   borderopacity="1"
   inkscape:showpageshadow="0"
   inkscape:pageopacity="0"
   inkscape:pagecheckerboard="0"
   inkscape:deskcolor="#505050"
   inkscape:zoom="5.87"
   inkscape:cx="488.07496"
   inkscape:cy="433.39012"
   inkscape:window-width="3440"
   inkscape:window-height="1375"
   inkscape:window-x="0"
   inkscape:window-y="0"
   inkscape:window-maximized="1"
   inkscape:current-layer="Capa_1" />
<g
   id="g3"
   style="stroke-width:0.18945012;stroke-dasharray:none">
	<g
   id="g2"
   style="stroke-width:0.18945012;stroke-dasharray:none">
		
		
	</g>
</g>
<path
   style="fill:#277fca;fill-opacity:1;stroke:#000000;stroke-width:1.3010874;stroke-dasharray:none;stroke-opacity:1"
   d="m 277.76196,587.06421 c -5.32774,-1.094 -10.18274,-4.88107 -12.648,-9.86589 l -1.32857,-2.68642 -0.15148,-101.31492 -0.15147,-101.31492 -71.65478,71.31686 c -68.6558,68.33204 -71.79675,71.36855 -75.04726,72.55187 -4.05415,1.47587 -7.86458,1.56877 -12.18126,0.29698 -2.94602,-0.86796 -4.13313,-1.87706 -15.895096,-13.51172 C 74.07627,488.0666 73.294758,486.90123 73.328736,479.60841 c 0.01622,-3.47846 0.315683,-4.94864 1.454785,-7.14166 1.046341,-2.01446 20.699385,-21.99976 72.650439,-73.87871 l 71.21607,-71.11723 -101.99419,-0.292 -101.994164,-0.29202 -3.139284,-1.73242 C 8.0423328,323.23388 5.6689977,320.67224 3.6750533,316.68435 2.3887769,314.11181 2.3520329,313.54362 2.3520329,296.22567 v -17.81264 l 1.5315548,-3.21213 c 1.8353949,-3.84936 4.9972015,-7.09461 8.6679473,-8.89668 l 2.696314,-1.3237 101.690531,-0.15091 101.69053,-0.15092 L 147.35302,193.579 C 89.384095,135.75335 75.821052,121.93569 74.705488,119.56762 c -1.809441,-3.841 -2.118882,-8.55997 -0.847458,-12.92372 0.957116,-3.28506 1.560735,-3.99834 13.626207,-16.101955 14.527403,-14.573334 15.697953,-15.352416 23.016793,-15.319311 3.43148,0.01554 4.97165,0.317854 7.01792,1.377583 1.80927,0.936998 24.7861,23.331701 74.15094,72.272263 l 71.52932,70.91457 0.29308,-101.21582 c 0.26784,-92.494942 0.37658,-101.398954 1.26194,-103.341395 1.44466,-3.169478 5.02613,-6.823129 8.37273,-8.5414437 2.86569,-1.4713919 3.47354,-1.5415872 17.6224,-2.0350737 8.05988,-0.2811121 16.2737,-0.395947 18.25295,-0.2551857 7.22796,0.514044 13.67801,5.0542389 16.0127,11.2713701 1.18931,3.167069 1.19785,3.906053 1.19785,103.757658 v 100.56787 l 71.36661,-71.0065 c 79.19281,-78.793217 73.56615,-73.710061 81.62465,-73.739811 6.72343,-0.02486 8.92187,1.41536 22.38182,14.662167 13.85532,13.635914 14.81397,15.062164 14.82469,22.056004 0.006,3.86828 -0.24426,5.14261 -1.4541,7.40624 -1.02671,1.92102 -22.624,23.89077 -72.62623,73.87871 l -71.16496,71.14467 101.64599,0.29201 c 92.88898,0.26683 101.82977,0.37516 103.77939,1.25729 3.18061,1.4391 6.84797,5.00731 8.57378,8.34199 1.48192,2.86342 1.5466,3.42932 2.04019,17.84972 0.28037,8.1909 0.38893,16.38831 0.24128,18.21643 -0.56204,6.95704 -5.18418,13.35289 -11.29654,15.63141 -3.17873,1.18495 -3.92044,1.19345 -104.13998,1.19345 H 371.07102 l 71.26813,71.10462 c 79.08355,78.90207 73.98167,73.29606 74.01154,81.32498 0.0249,6.69875 -1.42059,8.88912 -14.71621,22.29966 -13.68616,13.80446 -15.11766,14.75957 -22.13727,14.77026 -3.87158,0.006 -5.17519,-0.24676 -7.47498,-1.44875 -2.01566,-1.05351 -22.51083,-21.06873 -74.15094,-72.41451 l -71.36535,-70.95862 -0.29308,101.61975 -0.29309,101.61972 -1.73881,3.12776 c -1.92797,3.468 -4.49999,5.83313 -8.50123,7.81742 -2.54811,1.26362 -3.32115,1.3212 -19.06863,1.42021 -9.02707,0.0567 -17.50919,-0.12195 -18.84914,-0.3971 z"
   id="path3" /></svg>
