<?xml version="1.0" encoding="UTF-8" standalone="no"?>
<!-- Uploaded to: SVG Repo, www.svgrepo.com, Generator: SVG Repo Mixer Tools -->

<svg
   fill="#000000"
   width="800px"
   height="800px"
   viewBox="0 0 24 24"
   version="1.1"
   id="svg1"
   sodipodi:docname="help.svg"
   inkscape:version="1.4 (e7c3feb100, 2024-10-09)"
   xmlns:inkscape="http://www.inkscape.org/namespaces/inkscape"
   xmlns:sodipodi="http://sodipodi.sourceforge.net/DTD/sodipodi-0.dtd"
   xmlns="http://www.w3.org/2000/svg"
   xmlns:svg="http://www.w3.org/2000/svg">
  <defs
     id="defs1" />
  <sodipodi:namedview
     id="namedview1"
     pagecolor="#505050"
     bordercolor="#eeeeee"
     borderopacity="1"
     inkscape:showpageshadow="0"
     inkscape:pageopacity="0"
     inkscape:pagecheckerboard="0"
     inkscape:deskcolor="#505050"
     inkscape:zoom="1.4675"
     inkscape:cx="400"
     inkscape:cy="400"
     inkscape:window-width="3440"
     inkscape:window-height="1375"
     inkscape:window-x="0"
     inkscape:window-y="0"
     inkscape:window-maximized="1"
     inkscape:current-layer="svg1" />
  <path
     d="M11 18h2v-2h-2v2zm1-16C6.48 2 2 6.48 2 12s4.48 10 10 10 10-4.48 10-10S17.52 2 12 2zm0 18c-4.41 0-8-3.59-8-8s3.59-8 8-8 8 3.59 8 8-3.59 8-8 8zm0-14c-2.21 0-4 1.79-4 4h2c0-1.1.9-2 2-2s2 .9 2 2c0 2-3 1.75-3 5h2c0-2.25 3-2.5 3-5 0-2.21-1.79-4-4-4z"
     id="path1" />
  <path
     style="fill:#ffffff;stroke:#000000;stroke-width:1.20273"
     d="M 380.2385,665.67413 C 333.98635,660.967 300.00654,650.13885 263.7138,628.54189 210.00289,596.57978 168.71834,545.77572 148.20968,486.4045 133.72614,444.47561 130.04034,398.61799 137.61609,354.60202 c 15.27813,-88.76778 76.14473,-165.12545 159.55878,-200.16786 52.65186,-22.11915 112.30342,-26.62226 167.82287,-12.66897 80.44868,20.21855 148.34622,78.65683 180.56548,155.40968 7.08148,16.86951 13.33401,37.78433 16.37789,54.78424 3.25071,18.15506 3.76437,24.61777 3.79122,47.70017 0.0276,23.76667 -0.62426,31.64421 -4.14483,50.08518 -20.19957,105.80667 -103.07353,189.66196 -208.7766,211.24879 -17.44471,3.56258 -27.4838,4.52793 -49.40374,4.75061 -11.24362,0.11422 -21.66951,0.0828 -23.16866,-0.0697 z m 53.49233,-99.06425 V 533.21976 H 400 366.26917 V 566.60988 600 H 400 433.73083 Z m 0.24854,-72.49624 c 1.30967,-18.63153 9.28077,-34.7736 25.53918,-51.71875 3.24435,-3.3814 12.64499,-12.12942 20.89031,-19.44006 32.08422,-28.44718 42.18707,-41.20773 48.92579,-61.7964 5.85385,-17.88511 5.54222,-41.85211 -0.83848,-64.48778 -13.81736,-49.01739 -54.52057,-85.74593 -105.32752,-95.04229 -9.14865,-1.67397 -31.36059,-2.05087 -41.04872,-0.69653 -44.35776,6.20092 -81.74163,32.94549 -101.79098,72.82164 -6.87856,13.68079 -12.03832,31.48656 -13.15778,45.40612 -0.21501,2.67347 -0.56282,7.00736 -0.77291,9.63087 l -0.38197,4.77002 h 33.68404 33.68405 l 0.46573,-4.94038 c 2.45121,-26.00201 17.99358,-47.07296 41.95909,-56.88439 14.29578,-5.85266 32.84422,-6.14498 46.67802,-0.73565 13.98006,5.46654 25.06013,14.28061 32.71531,26.0247 13.63766,20.92201 14.7643,46.24148 2.90234,65.22533 -5.85404,9.36877 -13.9621,17.10375 -34.5955,33.00362 -31.1615,24.0127 -44.82388,41.48473 -52.06844,66.58732 -2.91351,10.09541 -5.17176,25.37571 -5.17176,34.99437 v 3.67567 h 33.63025 33.63026 z"
     id="path2"
     transform="scale(0.03)" />
</svg>
